<svg xmlns="http://www.w3.org/2000/svg" xmlns:xlink="http://www.w3.org/1999/xlink"><symbol id="icon-detective"><path d="M18 9.76a.7.7 0 00-.7.7c0 .4.31.71.7.71a.7.7 0 00.7-.7.7.7 0 00-.7-.71z" fill="#00B2FF"/><path d="M33.9 14h-2.75C29.71 9.87 27.62 2.6 23.83.54c-1.9-1.03-3.69-.31-4.36 1.15a1.6 1.6 0 01-1.47.94 1.6 1.6 0 01-1.47-.94c-.65-1.41-2.4-2.2-4.23-1.3-3.85 1.88-6 9.45-7.45 13.63H2.1a2.12 2.12 0 000 4.25h31.78c1.17 0 2.11-.96 2.11-2.13s-.95-2.12-2.1-2.12zM7.31 11.18h7.87a.7.7 0 00.7-.7.7.7 0 00-.7-.71H7.8c2.12-5.9 4.1-7.61 5.1-8.1 1.11-.55 2.02-.1 2.35.62A3 3 0 0018 4.04a3 3 0 002.74-1.76c.34-.73 1.25-1.14 2.42-.5 1.02.55 3 2.32 5.03 7.98h-7.38a.7.7 0 00-.7.7c0 .4.31.71.7.71h7.88l.97 2.84H6.34l.98-2.84zm26.57 5.67H2.11a.7.7 0 01-.7-.7c0-.4.31-.72.7-.72h31.78c.39 0 .7.32.7.71 0 .4-.31.7-.7.7zM16.6 21.09H5.33a.7.7 0 00-.7.7v2.84a6.32 6.32 0 0012.24 2.27c.71-.33 1.53-.33 2.24 0a6.32 6.32 0 0012.24-2.27V21.8a.7.7 0 00-.7-.71H19.4a.7.7 0 00-.7.7v.71h-1.4v-.7a.7.7 0 00-.7-.71zm-5.63 8.5a4.94 4.94 0 01-4.92-4.96V22.5h9.84v2.13c0 2.74-2.2 4.95-4.92 4.95zm9.14-7.09h9.84v2.13a4.93 4.93 0 11-9.84 0V22.5zm-1.4 1.42v.7c0 .23 0 .46.03.68a4.09 4.09 0 00-1.48 0c.02-.22.04-.45.04-.67v-.71h1.4z" fill="#00B2FF"/><path d="M10.97 26.75c-1.16 0-2.11-.95-2.11-2.12a.7.7 0 00-.7-.71.7.7 0 00-.7.7 3.53 3.53 0 003.5 3.55.7.7 0 00.71-.71.7.7 0 00-.7-.7zm14.06 1.42a3.53 3.53 0 003.52-3.54.7.7 0 00-.7-.71.7.7 0 00-.7.7c0 1.18-.96 2.13-2.12 2.13a.7.7 0 00-.7.71c0 .39.31.7.7.7z" fill="#00B2FF"/></symbol><symbol id="icon-facebook"><path fill-rule="evenodd" clip-rule="evenodd" d="M27 13.5C27 6.045 20.956 0 13.5 0S0 6.045 0 13.5C0 20.956 6.044 27 13.5 27S27 20.956 27 13.5zM16.884 9.294h-1.74c-.469 0-.798.397-.798.891v.775h2.485l-.402 2.517h-2.083v6.747h-2.543v-6.747h-1.688V10.96h1.688V9.677h.004c.045-1.463.553-2.856 3.031-2.944v-.01h2.046v2.571z" fill="#CDCDCD"/></symbol><symbol id="icon-hired"><path d="M31.26 27.9c.38-.53.6-1.16.6-1.85v-4.1c0-.38-.3-.69-.68-.69h-3.06a2.56 2.56 0 00-2.56 2.56v2.23c0 .69.22 1.32.6 1.84a4.4 4.4 0 00-1.34.45 5.82 5.82 0 00-4.3-2.56h-.01a4.02 4.02 0 001.03-2.7V17.5c0-.38-.31-.68-.69-.68H16.7a3.24 3.24 0 00-3.24 3.23v3.03c0 1.04.4 1.98 1.03 2.7h-.02a5.82 5.82 0 00-4.3 2.56 4.4 4.4 0 00-1.33-.45c.38-.52.6-1.15.6-1.84v-4.1c0-.38-.3-.69-.68-.69H5.7a2.56 2.56 0 00-2.56 2.56v2.23c0 .69.22 1.32.6 1.84A4.46 4.46 0 000 32.3v2.03c0 .37.3.68.68.68h33.64c.37 0 .68-.3.68-.68V32.3a4.46 4.46 0 00-3.74-4.4zM4.51 23.81c0-.66.53-1.2 1.19-1.2h2.37v.84c0 .4-.33.74-.74.74H4.51v-.38zm0 1.75h2.82c.26 0 .51-.05.74-.14v.62a1.78 1.78 0 01-3.56 0v-.48zm2.22 3.63l-.44.44-.44-.44h.88zm2.47 2.36v2.07H1.37V32.3a3.1 3.1 0 012.59-3.05L5.8 31.1a.68.68 0 00.96 0l1.85-1.85c.33.05.64.16.94.31-.24.63-.36 1.3-.36 2.01zm8.3-5.8a2.67 2.67 0 01-2.67-2.68v-.9h4.09c.45 0 .88-.12 1.25-.32v1.22c0 1.47-1.2 2.67-2.67 2.67zm1.2 1.36l-1.2 1.19-1.2-1.2h2.4zm-3.87-7.07c0-1.03.84-1.87 1.87-1.87h3.47v1.38c0 .7-.56 1.25-1.25 1.25h-4.09v-.76zm9.6 13.58H10.57v-1.36h4.45a.68.68 0 100-1.37h-4.4a4.45 4.45 0 013.8-3.74l2.6 2.6a.68.68 0 00.96 0l2.6-2.6a4.45 4.45 0 013.85 4.4v2.07zm2.5-9.8c0-.67.53-1.2 1.2-1.2h2.36v.83c0 .4-.33.74-.74.74h-2.82v-.38zm0 1.74h2.82c.26 0 .51-.05.74-.14v.62a1.78 1.78 0 01-3.56 0v-.48zm2.22 3.63l-.44.44-.44-.44h.88zm-3.35 4.43v-2.07c0-.7-.12-1.38-.36-2 .3-.16.61-.27.94-.32l1.85 1.85a.68.68 0 00.96 0l1.85-1.85a3.1 3.1 0 012.6 3.05v1.34H25.8zM20.87 4.47a.68.68 0 00-.97 0l-3.35 3.35-1.45-1.45a.68.68 0 10-.97.97l1.93 1.93a.68.68 0 00.97 0l3.84-3.84a.68.68 0 000-.96z" fill="#00B2FF"/><path d="M20.3.6a.68.68 0 00-.56 1.24 5.51 5.51 0 11-4.5.01.68.68 0 10-.56-1.24 6.88 6.88 0 002.82 13.13A6.88 6.88 0 0020.3.59z" fill="#00B2FF"/><path d="M17.52 0h-.02a.68.68 0 000 1.37h.02a.68.68 0 000-1.37zm.46 31.1a.69.69 0 00-.96 0 .69.69 0 000 .97.69.69 0 00.96 0 .69.69 0 000-.97z" fill="#00B2FF"/></symbol><symbol id="icon-logo"><path d="M32.07 13.87a2.6 2.6 0 012.44 1.73h8.98a2.6 2.6 0 110 1.73h-8.98a2.6 2.6 0 11-2.44-3.46zm13.86 3.46a.87.87 0 100-1.73.87.87 0 000 1.73zm-13.86 0a.87.87 0 100-1.73.87.87 0 000 1.73z" fill="#00B2FF"/><path d="M25.13 19.23v-5.36c0-.23.1-.45.26-.62l3.46-3.46a.86.86 0 01.62-.26h2.76a2.6 2.6 0 110 1.74h-2.4l-2.96 2.96v5a2.6 2.6 0 11-1.74 0zm9.54-7.96a.87.87 0 100-1.74.87.87 0 000 1.74zM26 22.53a.87.87 0 100-1.73.87.87 0 000 1.73zm-16.47 0c.4 0 .78.1 1.12.26l1.48-1.48V13c0-.23.1-.45.26-.61l8.67-8.68A2.6 2.6 0 1123.4 5.2c-.4 0-.77-.1-1.11-.26l-8.42 8.42v8.3c0 .24-.1.46-.26.62l-1.74 1.74a2.6 2.6 0 11-2.34-1.49zM23.4 3.47a.87.87 0 100-1.74.87.87 0 000 1.74zM9.53 26a.87.87 0 100-1.74.87.87 0 000 1.74zm-7.8-13.7V8.66c0-.23.1-.45.26-.62L8.05 2a.86.86 0 01.62-.26h4.49a2.6 2.6 0 110 1.74H9.03L3.47 9.03v3.26a2.6 2.6 0 11-1.74 0zM15.6 3.46a.87.87 0 100-1.74.87.87 0 000 1.74zM2.6 15.6a.87.87 0 100-1.74.87.87 0 000 1.74zm11.27 31.36V34.51a2.6 2.6 0 113.3-3.31h8.99a2.6 2.6 0 012.44-1.73 2.6 2.6 0 012.44 1.73h5l3.22-3.22a2.6 2.6 0 112.34 1.49c-.4 0-.77-.1-1.11-.26L37 32.68a.86.86 0 01-.61.25h-5.36a2.6 2.6 0 01-2.44 1.74 2.6 2.6 0 01-2.44-1.74h-8.99a2.6 2.6 0 01-1.57 1.58v12.45a2.6 2.6 0 11-1.73 0zM41.6 27.73a.87.87 0 100-1.73.87.87 0 000 1.73zm-13 5.2a.87.87 0 100-1.73.87.87 0 000 1.73zM14.73 50.27a.87.87 0 100-1.74.87.87 0 000 1.74zm0-17.34a.87.87 0 100-1.73.87.87 0 000 1.73z" fill="#00B2FF"/><path d="M18.2 17.5v-2.77c0-.23.1-.45.25-.61l10.41-10.4A2.6 2.6 0 0131.2 0a2.6 2.6 0 012.44 1.72h3.63c.48 0 .86.4.86.87v2.24l3.22 3.22a2.6 2.6 0 11-1.49 2.34c0-.4.1-.77.27-1.11L36.65 5.8a.86.86 0 01-.25-.61V3.47h-2.76a2.6 2.6 0 01-3.55 1.47L19.93 15.09v2.4a2.6 2.6 0 11-1.73 0zm24.27-6.23a.87.87 0 100-1.74.87.87 0 000 1.74zM31.2 3.47a.87.87 0 100-1.74.87.87 0 000 1.74zM19.07 20.8a.87.87 0 100-1.74.87.87 0 000 1.74z" fill="#00B2FF"/><path d="M20.8 24.27A2.6 2.6 0 0123.24 26h10.2l4.95-4.95a.86.86 0 01.61-.25h9.17l2.1-2.1v-7.07l-6.69-6.7c-.34.17-.71.27-1.11.27a2.6 2.6 0 112.6-2.6c0 .4-.1.77-.26 1.11l6.94 6.94c.16.17.25.39.25.62v7.8c0 .23-.1.45-.25.6l-2.6 2.6a.86.86 0 01-.62.26h-9.17l-4.95 4.95a.86.86 0 01-.61.25H23.24a2.6 2.6 0 11-2.44-3.46zM42.47 1.73a.87.87 0 100 1.74.87.87 0 000-1.74zm-21.67 26a.87.87 0 100-1.73.87.87 0 000 1.73zM2.6 20.8c.4 0 .77.1 1.11.26l3.22-3.22v-5a2.6 2.6 0 111.74 0v5.36c0 .23-.1.45-.26.61L4.94 22.3a2.56 2.56 0 01-1.47 3.55v.67l6.68 6.68c.16.16.25.38.25.61v1.03a2.6 2.6 0 011.73 2.44 2.6 2.6 0 01-1.73 2.44v2.05a2.6 2.6 0 11-1.73 0v-2.05a2.6 2.6 0 01-1.74-2.44 2.6 2.6 0 011.74-2.44v-.67l-6.68-6.68a.86.86 0 01-.26-.61v-1.03a2.6 2.6 0 01.87-5.04zm5.2-9.53a.87.87 0 100-1.74.87.87 0 000 1.74zm1.73 33.8a.87.87 0 100-1.74.87.87 0 000 1.74zm0-6.94a.87.87 0 100-1.73.87.87 0 000 1.73zM2.6 24.27a.87.87 0 100-1.74.87.87 0 000 1.74z" fill="#00B2FF"/></symbol><symbol id="icon-mail"><path d="M16.68 0H2.32C1.04 0 0 1 0 2.25v9.5A2.29 2.29 0 002.32 14h14.36c1.28 0 2.32-1 2.32-2.25v-9.5A2.29 2.29 0 0016.68 0zm1.26 11.75c0 .67-.56 1.22-1.26 1.22H2.32c-.7 0-1.26-.55-1.26-1.22v-9.5c0-.67.57-1.22 1.26-1.22h14.36c.7 0 1.26.55 1.26 1.22v9.5z" fill="#00B2FF"/><path d="M11.98 6.88l4.65-4.03a.5.5 0 00.04-.73.55.55 0 00-.75-.04L9.5 7.65 8.26 6.57v-.01a.78.78 0 00-.1-.07L3.09 2.08a.54.54 0 00-.75.04.5.5 0 00.04.73l4.7 4.07-4.68 4.24a.5.5 0 00-.02.73c.1.1.24.16.39.16.13 0 .26-.04.36-.14l4.75-4.3 1.29 1.11a.54.54 0 00.7 0l1.33-1.15 4.73 4.35c.1.1.23.14.36.14.15 0 .28-.05.39-.16a.5.5 0 00-.02-.73l-4.67-4.29z" fill="#00B2FF"/></symbol><symbol id="icon-ok"><path d="M13.851 10.957c1.016 0 1.806-.836 1.787-1.746.019-.91-.752-1.764-1.768-1.764-.978 0-1.787.78-1.787 1.746 0 .965.79 1.764 1.768 1.764z" fill="#CDCDCD"/><path d="M13.701 0C6.441 0 .535 5.831.535 13c0 7.187 5.906 13 13.166 13 7.279 0 13.166-5.831 13.166-13C26.885 5.83 20.98 0 13.7 0zm.188 4.921c2.37 0 4.326 1.932 4.307 4.29 0 2.377-1.975 4.29-4.382 4.253-2.37-.037-4.27-1.95-4.27-4.271 0-2.359 1.938-4.272 4.345-4.272zm4.834 10.029c0 .037-.019.056-.019.093a1.213 1.213 0 01-.564.873c-.207.13-.433.26-.659.371a8.55 8.55 0 01-1.786.65c-.075.019-.075.019-.02.074l1.035 1.022 1.317 1.3c.62.613.451 1.634-.339 2.006-.131.074-.282.092-.432.13h-.245c-.019 0-.037 0-.037-.02-.301-.036-.546-.185-.771-.39l-2.276-2.246c-.057-.056-.057-.056-.113 0l-2.295 2.265c-.131.13-.263.223-.432.298-.113.055-.245.074-.358.092h-.244c-.038 0-.057-.018-.094-.018-.508-.093-.847-.372-.997-.854-.15-.483-.038-.91.32-1.263l.94-.929 1.392-1.374c.056-.056.056-.056-.019-.074-.019 0-.056-.019-.075-.019a8.182 8.182 0 01-2.351-.984c-.433-.279-.64-.687-.583-1.189.094-.928 1.147-1.43 1.937-.928.15.092.282.167.451.241a5.413 5.413 0 002.746.557c.47-.018.94-.111 1.411-.26.451-.148.846-.353 1.26-.575.677-.39 1.561-.075 1.825.65.037.11.056.204.075.315v.186z" fill="#CDCDCD"/></symbol><symbol id="icon-phone"><path d="M14.23 11.15a1.77 1.77 0 00-1.28-.59c-.47 0-.92.2-1.3.59l-1.2 1.2-.3-.16a4.83 4.83 0 01-.38-.2 13.06 13.06 0 01-3.13-2.85 7.7 7.7 0 01-1.02-1.62l.88-.86.32-.33c.8-.8.8-1.83 0-2.63L5.78 2.67l-.35-.36c-.23-.24-.47-.48-.72-.71a1.8 1.8 0 00-1.27-.56c-.47 0-.92.2-1.3.56L.83 2.92a2.78 2.78 0 00-.82 1.77c-.1 1.1.23 2.14.48 2.82.62 1.66 1.54 3.2 2.91 4.84A17.9 17.9 0 009.37 17a9.3 9.3 0 003.6 1c.87 0 1.6-.32 2.19-.94l.01-.02c.2-.24.43-.46.67-.69l.5-.49c.37-.39.57-.85.57-1.31 0-.47-.2-.93-.59-1.3l-2.09-2.1zm1.37 4l-.47.46c-.25.24-.5.49-.73.76-.39.41-.84.6-1.43.6h-.18a8.26 8.26 0 01-2.97-.88 16.9 16.9 0 01-5.61-4.4c-1.3-1.56-2.17-3-2.74-4.55a5.42 5.42 0 01-.43-2.38c.04-.44.21-.81.53-1.13l1.3-1.3a.87.87 0 01.57-.26c.24 0 .44.14.56.26l.01.01.69.68c.11.13.23.25.36.37L6.1 4.43c.4.4.4.77 0 1.18l-.33.32c-.32.33-.63.63-.96.93l-.02.02c-.32.33-.26.65-.2.86l.02.04c.27.65.65 1.27 1.23 2 1.05 1.3 2.16 2.3 3.38 3.07.15.1.31.18.47.26l.37.2.05.02c.13.07.25.1.38.1.31 0 .5-.2.57-.26l1.3-1.3c.13-.13.34-.29.58-.29.24 0 .43.15.55.28l2.1 2.1c.4.39.4.79 0 1.2zM9.73 4.28a4.84 4.84 0 013.99 3.98c.04.25.25.43.5.43h.09a.51.51 0 00.42-.6 5.86 5.86 0 00-4.82-4.82.52.52 0 00-.6.42.5.5 0 00.42.6z" fill="#00B2FF"/><path d="M18 7.94a9.64 9.64 0 00-2.72-5.22A9.66 9.66 0 0010.05 0a.51.51 0 10-.17 1 8.65 8.65 0 017.1 7.1c.04.25.26.42.5.42h.1a.5.5 0 00.41-.59z" fill="#00B2FF"/></symbol><symbol id="icon-stopwatch"><path d="M3.19 11.66L1.7 10.2c-.8-.8-.8-2.1 0-2.9.8-.8 2.12-.8 2.93 0l1.59 1.57a14.58 14.58 0 015.52-2.3V4.5h-1.38a.69.69 0 01-.7-.68V2.05A2.08 2.08 0 0111.75 0h5.52c1.14 0 2.07.92 2.07 2.05v1.78c0 .38-.3.68-.69.68h-1.38v2.04c1.98.38 3.87 1.17 5.52 2.31l1.59-1.57c.8-.8 2.12-.8 2.93 0 .8.8.8 2.1 0 2.9l-1.49 1.47A14.25 14.25 0 0129 20.64C29 28.56 22.5 35 14.5 35S0 28.56 0 20.64c0-3.27 1.13-6.44 3.19-8.98zm.46-3.4a.7.7 0 00-.97 0 .68.68 0 000 .96l1.43 1.42c.32-.33.65-.64 1-.94L3.65 8.26zm14.3-6.2a.69.69 0 00-.69-.7h-5.52c-.38 0-.7.31-.7.7v1.08h6.91V2.05zM13.12 4.5v1.84a15 15 0 012.76 0V4.51h-2.76zm13.2 3.75a.7.7 0 00-.97 0L23.89 9.7c.35.3.68.6 1 .94l1.43-1.42a.68.68 0 000-.96zM14.5 33.63c7.23 0 13.12-5.82 13.12-12.99a12.9 12.9 0 00-5.18-10.34 13.18 13.18 0 00-17.8 1.77 12.9 12.9 0 00-3.26 8.57c0 7.17 5.89 13 13.12 13z" fill="#fff"/><path d="M14.5 22.7a2.06 2.06 0 01-2.07-2.06c0-.89.58-1.65 1.38-1.93v-4.9c0-.38.3-.69.69-.69.38 0 .7.31.7.69v4.9c.8.28 1.37 1.04 1.37 1.93 0 1.14-.93 2.06-2.07 2.06zm0-2.74a.685.685 0 100 1.37c.38 0 .7-.3.7-.69a.69.69 0 00-.7-.68z" fill="#fff"/><path d="M7.14 13.43a.54.54 0 01.04-.03l.04-.04a10.42 10.42 0 014.35-2.55c.37-.1.75.1.86.46.1.36-.1.74-.47.85-1.2.35-2.33.96-3.3 1.78l.47.46c.27.27.27.7 0 .97a.7.7 0 01-.98 0l-.46-.46a8.76 8.76 0 00-2.14 5.1h.66c.39 0 .7.3.7.67 0 .38-.31.69-.7.69h-.66a8.76 8.76 0 002.14 5.1l.46-.47a.7.7 0 01.98 0c.27.27.27.7 0 .97l-.47.46a8.94 8.94 0 005.15 2.12v-.66c0-.38.3-.69.69-.69.38 0 .7.31.7.69v.65c1.9-.14 3.68-.87 5.14-2.11l-.47-.46a.68.68 0 010-.97.7.7 0 01.98 0l.46.46c1.25-1.43 2-3.2 2.14-5.1h-.66a.69.69 0 01-.7-.68c0-.37.31-.68.7-.68h.66a8.76 8.76 0 00-2.14-5.1l-.46.47a.7.7 0 01-.98 0 .68.68 0 010-.97l.47-.46a9.02 9.02 0 00-3.3-1.78.68.68 0 11.39-1.31 10.41 10.41 0 014.4 2.59l.03.03a10.13 10.13 0 01-.04 14.46l-.03.04a10.34 10.34 0 01-7.29 2.97c-2.75 0-5.33-1.06-7.28-2.97l-.04-.04-.03-.03a10.13 10.13 0 010-14.43z" fill="#fff"/><path d="M14.5 11.76c-.38 0-.7-.3-.7-.69 0-.37.32-.68.7-.68a.685.685 0 110 1.37z" fill="#fff"/></symbol><symbol id="icon-tag"><path d="M11.07 8.58a.69.69 0 00-.97 0 .69.69 0 000 .97.69.69 0 00.97 0 .69.69 0 000-.97z" fill="#00B2FF"/><path d="M34.8 2.86L33.95 2l.85-.84a.68.68 0 00-.97-.97l-.84.84-.83-.83a.68.68 0 00-.49-.2H20.1a3.4 3.4 0 00-2.42 1l-5.77 5.77a.68.68 0 00.96.97l5.78-5.78c.39-.39.9-.6 1.45-.6h11.3l.63.64-2.53 2.54a2.8 2.8 0 10.96.97L33 2.98l.64.64V14.9c0 .55-.22 1.06-.6 1.45L16.33 33.03a2.04 2.04 0 01-2.9 0L1.97 21.56a2.04 2.04 0 010-2.9l7.37-7.37a.68.68 0 00-.97-.97L1 17.69a3.4 3.4 0 000 4.84L12.47 34a3.41 3.41 0 004.84 0L34 17.32c.65-.65 1-1.5 1-2.42V3.34a.68.68 0 00-.2-.48zm-5.74 5.1a1.42 1.42 0 01-2.03 0 1.43 1.43 0 011.43-2.38l-.8.79a.68.68 0 00.97.96l.8-.78c.13.48.01 1.03-.37 1.41z" fill="#00B2FF"/><path d="M29.2 13.76L21.23 5.8a2.71 2.71 0 00-3.82 0L4.8 18.4a2.69 2.69 0 000 3.83l7.97 7.97a2.69 2.69 0 003.82 0L29.2 17.6a2.69 2.69 0 000-3.84zm-.97 2.87l-12.6 12.6a1.33 1.33 0 01-1.9 0l-7.96-7.96a1.33 1.33 0 010-1.9l12.6-12.6a1.34 1.34 0 011.9 0l7.96 7.96a1.33 1.33 0 010 1.9z" fill="#00B2FF"/><path d="M22.29 13.68a.68.68 0 00-.97-.97l-.39.4a2.63 2.63 0 00-3.25.28c-.5.5-.75 1.18-.72 1.9a2.88 2.88 0 00.85 1.9c.55.55.62 1.38.14 1.85-.47.48-1.3.42-1.86-.13-.55-.55-.6-1.39-.13-1.86a.68.68 0 00-.97-.97c-.85.85-.94 2.2-.29 3.25l-.47.47a.68.68 0 00.97.97l.47-.47c.46.29.97.43 1.48.43.65 0 1.29-.24 1.77-.72 1-1 .94-2.7-.14-3.79a1.51 1.51 0 01-.45-1c-.02-.33.1-.64.31-.86.48-.47 1.31-.41 1.86.14s.61 1.38.14 1.86a.68.68 0 00.97.96c.85-.85.94-2.2.29-3.25l.39-.4zm-6.92 11.33l-3.5-3.51a.68.68 0 00-.98.97l3.52 3.5a.68.68 0 00.96 0 .68.68 0 000-.96zm-5.38-5.38a.69.69 0 00-.97 0 .69.69 0 000 .96.69.69 0 00.97 0 .69.69 0 000-.96z" fill="#00B2FF"/></symbol><symbol id="icon-vector"><path d="M1 8.5l4-4-4-4" stroke="#fff" stroke-linejoin="round"/></symbol><symbol id="icon-vk"><path d="M19.475 15.127c-1.109-1.024-1.188-1.024-.238-2.206 1.188-1.497 2.773-3.388 1.347-3.388H17.97c-.475 0-.554.316-.713.71-.633 1.496-1.9 3.466-2.376 3.15-.475-.314-.237-1.496-.237-3.387a.61.61 0 00-.159-.63c-.158-.158-.396-.315-.633-.315-.396-.079-.792-.158-1.188-.158-1.505 0-2.535.63-1.98.71 1.03.157.95 2.363.712 3.308-.396 1.655-1.98-1.26-2.693-2.757-.079-.394-.396-.63-.792-.63H5.852c-.317 0-.554.078-.554.315 0 .393 1.98 4.254 3.801 6.224 1.822 1.89 3.644 1.733 4.911 1.733a.607.607 0 00.396-.158.6.6 0 00.158-.394c0-1.26.476-1.89 1.347-1.024.95.945 1.188 1.576 2.376 1.576h2.138c.555 0 .713-.158.713-.394.08-.552-.871-1.576-1.663-2.285zM13.852.001c7.366.157 13.226 6.066 13.147 13.235-.079 7.17-6.178 12.842-13.543 12.763C6.01 25.92.07 20.17.07 13 .15 5.753 6.327-.077 13.852.002z" fill="#CDCDCD"/></symbol></svg>